<?xml version="1.0" encoding="utf-8" standalone="no"?>
<!DOCTYPE svg PUBLIC "-//W3C//DTD SVG 1.1//EN"
  "http://www.w3.org/Graphics/SVG/1.1/DTD/svg11.dtd">
<svg xmlns:xlink="http://www.w3.org/1999/xlink" width="596.48375pt" height="270.934922pt" viewBox="0 0 596.48375 270.934922" xmlns="http://www.w3.org/2000/svg" version="1.1">
 <metadata>
  <rdf:RDF xmlns:dc="http://purl.org/dc/elements/1.1/" xmlns:cc="http://creativecommons.org/ns#" xmlns:rdf="http://www.w3.org/1999/02/22-rdf-syntax-ns#">
   <cc:Work>
    <dc:type rdf:resource="http://purl.org/dc/dcmitype/StillImage"/>
    <dc:date>2026-04-30T19:30:26.516861</dc:date>
    <dc:format>image/svg+xml</dc:format>
    <dc:creator>
     <cc:Agent>
      <dc:title>Matplotlib v3.10.8, https://matplotlib.org/</dc:title>
     </cc:Agent>
    </dc:creator>
   </cc:Work>
  </rdf:RDF>
 </metadata>
 <defs>
  <style type="text/css">*{stroke-linejoin: round; stroke-linecap: butt}</style>
 </defs>
 <g id="figure_1">
  <g id="patch_1">
   <path d="M 0 270.934922 
L 596.48375 270.934922 
L 596.48375 0 
L 0 0 
z
" style="fill: #ffffff"/>
  </g>
  <g id="axes_1">
   <g id="patch_2">
    <path d="M 34.54375 232.177362 
L 288.18875 232.177362 
L 288.18875 54.528 
L 34.54375 54.528 
z
" style="fill: #ffffff"/>
   </g>
   <g id="patch_3">
    <path d="M 46.073068 232.177362 
L 111.954886 232.177362 
L 111.954886 211.102497 
L 46.073068 211.102497 
z
" clip-path="url(#pa1f568c2b1)" style="fill: #6366f1; stroke: #312e81; stroke-width: 0.8; stroke-linejoin: miter"/>
   </g>
   <g id="patch_4">
    <path d="M 128.425341 232.177362 
L 194.307159 232.177362 
L 194.307159 171.794628 
L 128.425341 171.794628 
z
" clip-path="url(#pa1f568c2b1)" style="fill: #6366f1; stroke: #312e81; stroke-width: 0.8; stroke-linejoin: miter"/>
   </g>
   <g id="patch_5">
    <path d="M 210.777614 232.177362 
L 276.659432 232.177362 
L 276.659432 70.014841 
L 210.777614 70.014841 
z
" clip-path="url(#pa1f568c2b1)" style="fill: #6366f1; stroke: #312e81; stroke-width: 0.8; stroke-linejoin: miter"/>
   </g>
   <g id="matplotlib.axis_1">
    <g id="xtick_1">
     <g id="line2d_1">
      <defs>
       <path id="m2630dd7aae" d="M 0 0 
L 0 3.5 
" style="stroke: #000000; stroke-width: 0.8"/>
      </defs>
      <g>
       <use xlink:href="#m2630dd7aae" x="79.013977" y="232.177362" style="stroke: #000000; stroke-width: 0.8"/>
      </g>
     </g>
     <g id="text_1">
      <!-- Control -->
      <g transform="translate(45.667663 261.481898) rotate(-25) scale(0.1 -0.1)">
       <defs>
        <path id="MicrosoftYaHei-43" d="M 3938 200 
Q 3403 -81 2597 -81 
Q 1556 -81 934 580 
Q 313 1241 313 2328 
Q 313 3497 1013 4209 
Q 1713 4922 2791 4922 
Q 3484 4922 3938 4725 
L 3938 4072 
Q 3419 4359 2797 4359 
Q 1988 4359 1478 3820 
Q 969 3281 969 2366 
Q 969 1497 1444 986 
Q 1919 475 2688 475 
Q 3406 475 3938 800 
L 3938 200 
z
" transform="scale(0.015625)"/>
        <path id="MicrosoftYaHei-6f" d="M 316 1691 
Q 316 2547 794 3042 
Q 1272 3538 2091 3538 
Q 2869 3538 3311 3061 
Q 3753 2584 3753 1744 
Q 3753 925 3281 422 
Q 2809 -81 2016 -81 
Q 1241 -81 778 406 
Q 316 894 316 1691 
z
M 941 1709 
Q 941 1113 1242 769 
Q 1544 425 2053 425 
Q 2578 425 2853 761 
Q 3128 1097 3128 1725 
Q 3128 2356 2853 2693 
Q 2578 3031 2053 3031 
Q 1538 3031 1239 2678 
Q 941 2325 941 1709 
z
" transform="scale(0.015625)"/>
        <path id="MicrosoftYaHei-6e" d="M 3469 0 
L 2859 0 
L 2859 1966 
Q 2859 3031 2081 3031 
Q 1678 3031 1418 2731 
Q 1159 2431 1159 1972 
L 1159 0 
L 547 0 
L 547 3456 
L 1159 3456 
L 1159 2884 
L 1172 2884 
Q 1563 3538 2306 3538 
Q 2875 3538 3172 3173 
Q 3469 2809 3469 2113 
L 3469 0 
z
" transform="scale(0.015625)"/>
        <path id="MicrosoftYaHei-74" d="M 2206 34 
Q 2006 -75 1666 -75 
Q 738 -75 738 953 
L 738 2950 
L 144 2950 
L 144 3456 
L 738 3456 
L 738 4288 
L 1347 4481 
L 1347 3456 
L 2206 3456 
L 2206 2950 
L 1347 2950 
L 1347 1063 
Q 1347 722 1462 575 
Q 1578 428 1847 428 
Q 2053 428 2206 544 
L 2206 34 
z
" transform="scale(0.015625)"/>
        <path id="MicrosoftYaHei-72" d="M 2400 2850 
Q 2247 2959 1978 2959 
Q 1622 2959 1390 2626 
Q 1159 2294 1159 1750 
L 1159 0 
L 547 0 
L 547 3456 
L 1159 3456 
L 1159 2753 
L 1172 2753 
Q 1434 3516 2078 3516 
Q 2288 3516 2400 3469 
L 2400 2850 
z
" transform="scale(0.015625)"/>
        <path id="MicrosoftYaHei-6c" d="M 544 0 
L 544 5116 
L 1156 5116 
L 1156 0 
L 544 0 
z
" transform="scale(0.015625)"/>
       </defs>
       <use xlink:href="#MicrosoftYaHei-43"/>
       <use xlink:href="#MicrosoftYaHei-6f" transform="translate(66.894531 0)"/>
       <use xlink:href="#MicrosoftYaHei-6e" transform="translate(130.46875 0)"/>
       <use xlink:href="#MicrosoftYaHei-74" transform="translate(192.089844 0)"/>
       <use xlink:href="#MicrosoftYaHei-72" transform="translate(229.345703 0)"/>
       <use xlink:href="#MicrosoftYaHei-6f" transform="translate(266.154297 0)"/>
       <use xlink:href="#MicrosoftYaHei-6c" transform="translate(329.728516 0)"/>
      </g>
     </g>
    </g>
    <g id="xtick_2">
     <g id="line2d_2">
      <g>
       <use xlink:href="#m2630dd7aae" x="161.36625" y="232.177362" style="stroke: #000000; stroke-width: 0.8"/>
      </g>
     </g>
     <g id="text_2">
      <!-- Treat-L -->
      <g transform="translate(131.077309 260.056221) rotate(-25) scale(0.1 -0.1)">
       <defs>
        <path id="MicrosoftYaHei-54" d="M 3550 4284 
L 2153 4284 
L 2153 0 
L 1525 0 
L 1525 4284 
L 134 4284 
L 134 4841 
L 3550 4841 
L 3550 4284 
z
" transform="scale(0.015625)"/>
        <path id="MicrosoftYaHei-65" d="M 3363 1572 
L 944 1572 
Q 959 1019 1246 717 
Q 1534 416 2050 416 
Q 2631 416 3116 788 
L 3116 241 
Q 2659 -81 1906 -81 
Q 1156 -81 736 394 
Q 316 869 316 1713 
Q 316 2506 777 3022 
Q 1238 3538 1922 3538 
Q 2600 3538 2981 3102 
Q 3363 2666 3363 1881 
L 3363 1572 
z
M 2750 2063 
Q 2747 2531 2528 2787 
Q 2309 3044 1913 3044 
Q 1547 3044 1280 2772 
Q 1013 2500 944 2063 
L 2750 2063 
z
" transform="scale(0.015625)"/>
        <path id="MicrosoftYaHei-61" d="M 628 3216 
Q 1144 3538 1819 3538 
Q 3069 3538 3069 2225 
L 3069 0 
L 2463 0 
L 2463 534 
L 2447 534 
Q 2088 -81 1388 -81 
Q 884 -81 587 191 
Q 291 463 291 925 
Q 291 1894 1438 2053 
L 2463 2197 
Q 2463 3044 1763 3044 
Q 1141 3044 628 2625 
L 628 3216 
z
M 1653 1625 
Q 1228 1569 1067 1412 
Q 906 1256 906 975 
Q 906 728 1081 572 
Q 1256 416 1544 416 
Q 1944 416 2203 697 
Q 2463 978 2463 1403 
L 2463 1734 
L 1653 1625 
z
" transform="scale(0.015625)"/>
        <path id="MicrosoftYaHei-2d" d="M 2328 1681 
L 488 1681 
L 488 2153 
L 2328 2153 
L 2328 1681 
z
" transform="scale(0.015625)"/>
        <path id="MicrosoftYaHei-4c" d="M 3178 0 
L 625 0 
L 625 4841 
L 1250 4841 
L 1250 553 
L 3178 553 
L 3178 0 
z
" transform="scale(0.015625)"/>
       </defs>
       <use xlink:href="#MicrosoftYaHei-54"/>
       <use xlink:href="#MicrosoftYaHei-72" transform="translate(47.949219 0)"/>
       <use xlink:href="#MicrosoftYaHei-65" transform="translate(84.757812 0)"/>
       <use xlink:href="#MicrosoftYaHei-61" transform="translate(141.496094 0)"/>
       <use xlink:href="#MicrosoftYaHei-74" transform="translate(196.769531 0)"/>
       <use xlink:href="#MicrosoftYaHei-2d" transform="translate(228.025391 0)"/>
       <use xlink:href="#MicrosoftYaHei-4c" transform="translate(271.287109 0)"/>
      </g>
     </g>
    </g>
    <g id="xtick_3">
     <g id="line2d_3">
      <g>
       <use xlink:href="#m2630dd7aae" x="243.718523" y="232.177362" style="stroke: #000000; stroke-width: 0.8"/>
      </g>
     </g>
     <g id="text_3">
      <!-- Treat-H -->
      <g transform="translate(211.070349 261.156349) rotate(-25) scale(0.1 -0.1)">
       <defs>
        <path id="MicrosoftYaHei-48" d="M 4325 0 
L 3700 0 
L 3700 2181 
L 1250 2181 
L 1250 0 
L 625 0 
L 625 4841 
L 1250 4841 
L 1250 2738 
L 3700 2738 
L 3700 4841 
L 4325 4841 
L 4325 0 
z
" transform="scale(0.015625)"/>
       </defs>
       <use xlink:href="#MicrosoftYaHei-54"/>
       <use xlink:href="#MicrosoftYaHei-72" transform="translate(47.949219 0)"/>
       <use xlink:href="#MicrosoftYaHei-65" transform="translate(84.757812 0)"/>
       <use xlink:href="#MicrosoftYaHei-61" transform="translate(141.496094 0)"/>
       <use xlink:href="#MicrosoftYaHei-74" transform="translate(196.769531 0)"/>
       <use xlink:href="#MicrosoftYaHei-2d" transform="translate(228.025391 0)"/>
       <use xlink:href="#MicrosoftYaHei-48" transform="translate(271.287109 0)"/>
      </g>
     </g>
    </g>
   </g>
   <g id="matplotlib.axis_2">
    <g id="ytick_1">
     <g id="line2d_4">
      <path d="M 34.54375 232.177362 
L 288.18875 232.177362 
" clip-path="url(#pa1f568c2b1)" style="fill: none; stroke-dasharray: 0.8,1.32; stroke-dashoffset: 0; stroke: #b0b0b0; stroke-opacity: 0.5; stroke-width: 0.8"/>
     </g>
     <g id="line2d_5">
      <defs>
       <path id="m0a57ac1906" d="M 0 0 
L -3.5 0 
" style="stroke: #000000; stroke-width: 0.8"/>
      </defs>
      <g>
       <use xlink:href="#m0a57ac1906" x="34.54375" y="232.177362" style="stroke: #000000; stroke-width: 0.8"/>
      </g>
     </g>
     <g id="text_4">
      <!-- 0 -->
      <g transform="translate(21.679688 236.174237) scale(0.1 -0.1)">
       <defs>
        <path id="MicrosoftYaHei-30" d="M 284 2325 
Q 284 3606 709 4264 
Q 1134 4922 1941 4922 
Q 3478 4922 3478 2441 
Q 3478 1216 3045 567 
Q 2613 -81 1831 -81 
Q 1094 -81 689 534 
Q 284 1150 284 2325 
z
M 909 2353 
Q 909 425 1888 425 
Q 2850 425 2850 2384 
Q 2850 4413 1906 4413 
Q 909 4413 909 2353 
z
" transform="scale(0.015625)"/>
       </defs>
       <use xlink:href="#MicrosoftYaHei-30"/>
      </g>
     </g>
    </g>
    <g id="ytick_2">
     <g id="line2d_6">
      <path d="M 34.54375 190.131181 
L 288.18875 190.131181 
" clip-path="url(#pa1f568c2b1)" style="fill: none; stroke-dasharray: 0.8,1.32; stroke-dashoffset: 0; stroke: #b0b0b0; stroke-opacity: 0.5; stroke-width: 0.8"/>
     </g>
     <g id="line2d_7">
      <g>
       <use xlink:href="#m0a57ac1906" x="34.54375" y="190.131181" style="stroke: #000000; stroke-width: 0.8"/>
      </g>
     </g>
     <g id="text_5">
      <!-- 2 -->
      <g transform="translate(21.679688 194.128056) scale(0.1 -0.1)">
       <defs>
        <path id="MicrosoftYaHei-32" d="M 2666 3572 
Q 2666 3963 2419 4186 
Q 2172 4409 1747 4409 
Q 1447 4409 1140 4256 
Q 834 4103 569 3819 
L 569 4413 
Q 806 4659 1107 4790 
Q 1409 4922 1816 4922 
Q 2472 4922 2872 4570 
Q 3272 4219 3272 3619 
Q 3272 3084 3026 2693 
Q 2781 2303 2188 1894 
Q 1581 1475 1376 1294 
Q 1172 1113 1090 947 
Q 1009 781 1009 544 
L 3416 544 
L 3416 0 
L 372 0 
L 372 241 
Q 372 659 486 951 
Q 600 1244 862 1520 
Q 1125 1797 1681 2184 
Q 2250 2584 2458 2886 
Q 2666 3188 2666 3572 
z
" transform="scale(0.015625)"/>
       </defs>
       <use xlink:href="#MicrosoftYaHei-32"/>
      </g>
     </g>
    </g>
    <g id="ytick_3">
     <g id="line2d_8">
      <path d="M 34.54375 148.085 
L 288.18875 148.085 
" clip-path="url(#pa1f568c2b1)" style="fill: none; stroke-dasharray: 0.8,1.32; stroke-dashoffset: 0; stroke: #b0b0b0; stroke-opacity: 0.5; stroke-width: 0.8"/>
     </g>
     <g id="line2d_9">
      <g>
       <use xlink:href="#m0a57ac1906" x="34.54375" y="148.085" style="stroke: #000000; stroke-width: 0.8"/>
      </g>
     </g>
     <g id="text_6">
      <!-- 4 -->
      <g transform="translate(21.679688 152.081875) scale(0.1 -0.1)">
       <defs>
        <path id="MicrosoftYaHei-34" d="M 2906 4841 
L 2906 1644 
L 3631 1644 
L 3631 1138 
L 2906 1138 
L 2906 0 
L 2313 0 
L 2313 1138 
L 53 1138 
L 53 1616 
Q 656 2294 1265 3178 
Q 1875 4063 2272 4841 
L 2906 4841 
z
M 741 1644 
L 2313 1644 
L 2313 3950 
Q 1988 3366 1616 2817 
Q 1244 2269 741 1644 
z
" transform="scale(0.015625)"/>
       </defs>
       <use xlink:href="#MicrosoftYaHei-34"/>
      </g>
     </g>
    </g>
    <g id="ytick_4">
     <g id="line2d_10">
      <path d="M 34.54375 106.038818 
L 288.18875 106.038818 
" clip-path="url(#pa1f568c2b1)" style="fill: none; stroke-dasharray: 0.8,1.32; stroke-dashoffset: 0; stroke: #b0b0b0; stroke-opacity: 0.5; stroke-width: 0.8"/>
     </g>
     <g id="line2d_11">
      <g>
       <use xlink:href="#m0a57ac1906" x="34.54375" y="106.038818" style="stroke: #000000; stroke-width: 0.8"/>
      </g>
     </g>
     <g id="text_7">
      <!-- 6 -->
      <g transform="translate(21.679688 110.035693) scale(0.1 -0.1)">
       <defs>
        <path id="MicrosoftYaHei-36" d="M 3181 4219 
Q 2803 4413 2391 4413 
Q 1763 4413 1381 3866 
Q 1000 3319 994 2372 
L 1009 2372 
Q 1353 3038 2106 3038 
Q 2734 3038 3109 2628 
Q 3484 2219 3484 1541 
Q 3484 831 3051 375 
Q 2619 -81 1947 -81 
Q 1209 -81 789 495 
Q 369 1072 369 2131 
Q 369 3413 920 4167 
Q 1472 4922 2372 4922 
Q 2888 4922 3181 4781 
L 3181 4219 
z
M 1031 1584 
Q 1031 1106 1286 765 
Q 1541 425 1963 425 
Q 2363 425 2613 719 
Q 2863 1013 2863 1475 
Q 2863 1975 2627 2253 
Q 2391 2531 1956 2531 
Q 1544 2531 1287 2250 
Q 1031 1969 1031 1584 
z
" transform="scale(0.015625)"/>
       </defs>
       <use xlink:href="#MicrosoftYaHei-36"/>
      </g>
     </g>
    </g>
    <g id="ytick_5">
     <g id="line2d_12">
      <path d="M 34.54375 63.992637 
L 288.18875 63.992637 
" clip-path="url(#pa1f568c2b1)" style="fill: none; stroke-dasharray: 0.8,1.32; stroke-dashoffset: 0; stroke: #b0b0b0; stroke-opacity: 0.5; stroke-width: 0.8"/>
     </g>
     <g id="line2d_13">
      <g>
       <use xlink:href="#m0a57ac1906" x="34.54375" y="63.992637" style="stroke: #000000; stroke-width: 0.8"/>
      </g>
     </g>
     <g id="text_8">
      <!-- 8 -->
      <g transform="translate(21.679688 67.989512) scale(0.1 -0.1)">
       <defs>
        <path id="MicrosoftYaHei-38" d="M 306 1350 
Q 306 1769 556 2122 
Q 806 2475 1200 2625 
Q 884 2803 700 3081 
Q 516 3359 516 3684 
Q 516 4028 692 4312 
Q 869 4597 1183 4759 
Q 1497 4922 1875 4922 
Q 2256 4922 2572 4761 
Q 2888 4600 3063 4315 
Q 3238 4031 3238 3684 
Q 3238 3366 3058 3086 
Q 2878 2806 2559 2625 
Q 2953 2472 3200 2119 
Q 3447 1766 3447 1350 
Q 3447 938 3250 611 
Q 3053 284 2690 103 
Q 2328 -78 1875 -78 
Q 1425 -78 1065 103 
Q 706 284 506 612 
Q 306 941 306 1350 
z
M 906 1378 
Q 906 947 1172 687 
Q 1438 428 1878 428 
Q 2309 428 2582 692 
Q 2856 956 2856 1378 
Q 2856 1778 2579 2051 
Q 2303 2325 1878 2325 
Q 1456 2325 1181 2058 
Q 906 1791 906 1378 
z
M 1081 3634 
Q 1081 3309 1312 3076 
Q 1544 2844 1878 2844 
Q 2206 2844 2445 3078 
Q 2684 3313 2684 3634 
Q 2684 3963 2454 4191 
Q 2225 4419 1878 4419 
Q 1534 4419 1307 4195 
Q 1081 3972 1081 3634 
z
" transform="scale(0.015625)"/>
       </defs>
       <use xlink:href="#MicrosoftYaHei-38"/>
      </g>
     </g>
    </g>
    <g id="text_9">
     <!-- 2^-ΔΔCt (mean ± SEM) -->
     <g transform="translate(15.19375 199.775337) rotate(-90) scale(0.1 -0.1)">
      <defs>
       <path id="MicrosoftYaHei-5e" d="M 3991 2100 
L 3450 2100 
L 2344 4175 
L 2328 4175 
L 1297 2100 
L 766 2100 
L 2194 4922 
L 2450 4922 
L 3991 2100 
z
" transform="scale(0.015625)"/>
       <path id="MicrosoftYaHei-394" d="M 166 0 
L 166 275 
L 1913 4841 
L 2578 4841 
L 4334 275 
L 4334 0 
L 166 0 
z
M 2366 3744 
Q 2313 3894 2280 4012 
Q 2247 4131 2241 4225 
L 2225 4225 
Q 2213 4138 2181 4019 
Q 2150 3900 2091 3747 
Q 1856 3097 1570 2301 
Q 1284 1506 941 553 
L 3544 553 
L 2366 3744 
z
" transform="scale(0.015625)"/>
       <path id="MicrosoftYaHei-20" transform="scale(0.015625)"/>
       <path id="MicrosoftYaHei-28" d="M 1531 -1100 
Q 478 100 478 1847 
Q 478 3594 1531 4841 
L 2072 4841 
Q 1016 3544 1016 1853 
Q 1016 166 2066 -1100 
L 1531 -1100 
z
" transform="scale(0.015625)"/>
       <path id="MicrosoftYaHei-6d" d="M 5522 0 
L 4909 0 
L 4909 1984 
Q 4909 2547 4734 2789 
Q 4559 3031 4159 3031 
Q 3822 3031 3581 2715 
Q 3341 2400 3341 1969 
L 3341 0 
L 2728 0 
L 2728 2047 
Q 2728 3031 1969 3031 
Q 1619 3031 1389 2731 
Q 1159 2431 1159 1966 
L 1159 0 
L 547 0 
L 547 3456 
L 1159 3456 
L 1159 2909 
L 1172 2909 
Q 1541 3538 2250 3538 
Q 2597 3538 2862 3347 
Q 3128 3156 3231 2831 
Q 3616 3538 4381 3538 
Q 5522 3538 5522 2131 
L 5522 0 
z
" transform="scale(0.015625)"/>
       <path id="MicrosoftYaHei-b1" d="M 3972 2216 
L 2613 2216 
L 2613 859 
L 2147 859 
L 2147 2216 
L 788 2216 
L 788 2691 
L 2147 2691 
L 2147 4047 
L 2613 4047 
L 2613 2691 
L 3972 2691 
L 3972 2216 
z
M 3972 0 
L 788 0 
L 788 475 
L 3972 475 
L 3972 0 
z
" transform="scale(0.015625)"/>
       <path id="MicrosoftYaHei-53" d="M 400 909 
Q 622 716 994 591 
Q 1366 466 1700 466 
Q 2719 466 2719 1191 
Q 2719 1394 2609 1556 
Q 2500 1719 2309 1844 
Q 2119 1969 1594 2228 
Q 866 2591 634 2902 
Q 403 3213 403 3613 
Q 403 4216 887 4569 
Q 1372 4922 2109 4922 
Q 2831 4922 3169 4747 
L 3169 4066 
Q 2731 4369 2063 4369 
Q 1619 4369 1339 4183 
Q 1059 3997 1059 3666 
Q 1059 3372 1253 3187 
Q 1447 3003 2094 2684 
Q 2806 2344 3090 2003 
Q 3375 1663 3375 1238 
Q 3375 600 2912 259 
Q 2450 -81 1628 -81 
Q 1341 -81 958 -1 
Q 575 78 400 197 
L 400 909 
z
" transform="scale(0.015625)"/>
       <path id="MicrosoftYaHei-45" d="M 3228 0 
L 625 0 
L 625 4841 
L 3119 4841 
L 3119 4284 
L 1250 4284 
L 1250 2734 
L 2981 2734 
L 2981 2181 
L 1250 2181 
L 1250 553 
L 3228 553 
L 3228 0 
z
" transform="scale(0.015625)"/>
       <path id="MicrosoftYaHei-4d" d="M 5003 0 
L 5003 3206 
Q 5003 3603 5050 4159 
L 5034 4159 
Q 4953 3809 4891 3672 
L 3294 0 
L 2947 0 
L 1353 3644 
Q 1297 3769 1209 4159 
L 1191 4159 
Q 1222 3822 1222 3178 
L 1222 0 
L 625 0 
L 625 4841 
L 1472 4841 
L 2900 1522 
Q 3063 1141 3116 928 
L 3138 928 
Q 3300 1375 3366 1534 
L 4819 4841 
L 5625 4841 
L 5625 0 
L 5003 0 
z
" transform="scale(0.015625)"/>
       <path id="MicrosoftYaHei-29" d="M 78 -1100 
Q 1131 163 1131 1853 
Q 1131 3547 72 4841 
L 616 4841 
Q 1672 3603 1672 1847 
Q 1672 91 616 -1100 
L 78 -1100 
z
" transform="scale(0.015625)"/>
      </defs>
      <use xlink:href="#MicrosoftYaHei-32"/>
      <use xlink:href="#MicrosoftYaHei-5e" transform="translate(58.642578 0)"/>
      <use xlink:href="#MicrosoftYaHei-2d" transform="translate(132.8125 0)"/>
      <use xlink:href="#MicrosoftYaHei-394" transform="translate(176.074219 0)"/>
      <use xlink:href="#MicrosoftYaHei-394" transform="translate(246.435547 0)"/>
      <use xlink:href="#MicrosoftYaHei-43" transform="translate(316.796875 0)"/>
      <use xlink:href="#MicrosoftYaHei-74" transform="translate(383.691406 0)"/>
      <use xlink:href="#MicrosoftYaHei-20" transform="translate(420.947266 0)"/>
      <use xlink:href="#MicrosoftYaHei-28" transform="translate(450.537109 0)"/>
      <use xlink:href="#MicrosoftYaHei-6d" transform="translate(483.935547 0)"/>
      <use xlink:href="#MicrosoftYaHei-65" transform="translate(577.636719 0)"/>
      <use xlink:href="#MicrosoftYaHei-61" transform="translate(634.375 0)"/>
      <use xlink:href="#MicrosoftYaHei-6e" transform="translate(689.648438 0)"/>
      <use xlink:href="#MicrosoftYaHei-20" transform="translate(751.269531 0)"/>
      <use xlink:href="#MicrosoftYaHei-b1" transform="translate(780.859375 0)"/>
      <use xlink:href="#MicrosoftYaHei-20" transform="translate(855.029297 0)"/>
      <use xlink:href="#MicrosoftYaHei-53" transform="translate(884.619141 0)"/>
      <use xlink:href="#MicrosoftYaHei-45" transform="translate(942.333984 0)"/>
      <use xlink:href="#MicrosoftYaHei-4d" transform="translate(997.314453 0)"/>
      <use xlink:href="#MicrosoftYaHei-29" transform="translate(1095.019531 0)"/>
     </g>
    </g>
   </g>
   <g id="LineCollection_1">
    <path d="M 79.013977 211.749578 
L 79.013977 210.455415 
" clip-path="url(#pa1f568c2b1)" style="fill: none; stroke: #475569; stroke-width: 1.2"/>
    <path d="M 161.36625 172.561384 
L 161.36625 171.027872 
" clip-path="url(#pa1f568c2b1)" style="fill: none; stroke: #475569; stroke-width: 1.2"/>
    <path d="M 243.718523 77.042188 
L 243.718523 62.987493 
" clip-path="url(#pa1f568c2b1)" style="fill: none; stroke: #475569; stroke-width: 1.2"/>
   </g>
   <g id="line2d_14">
    <defs>
     <path id="m4db95470b3" d="M 4 0 
L -4 -0 
" style="stroke: #475569"/>
    </defs>
    <g clip-path="url(#pa1f568c2b1)">
     <use xlink:href="#m4db95470b3" x="79.013977" y="211.749578" style="fill: #1f77b4; stroke: #475569"/>
     <use xlink:href="#m4db95470b3" x="161.36625" y="172.561384" style="fill: #1f77b4; stroke: #475569"/>
     <use xlink:href="#m4db95470b3" x="243.718523" y="77.042188" style="fill: #1f77b4; stroke: #475569"/>
    </g>
   </g>
   <g id="line2d_15">
    <g clip-path="url(#pa1f568c2b1)">
     <use xlink:href="#m4db95470b3" x="79.013977" y="210.455415" style="fill: #1f77b4; stroke: #475569"/>
     <use xlink:href="#m4db95470b3" x="161.36625" y="171.027872" style="fill: #1f77b4; stroke: #475569"/>
     <use xlink:href="#m4db95470b3" x="243.718523" y="62.987493" style="fill: #1f77b4; stroke: #475569"/>
    </g>
   </g>
   <g id="line2d_16">
    <path d="M 34.54375 211.154271 
L 288.18875 211.154271 
" clip-path="url(#pa1f568c2b1)" style="fill: none; stroke-dasharray: 2.96,1.28; stroke-dashoffset: 0; stroke: #94a3b8; stroke-width: 0.8"/>
   </g>
   <g id="patch_6">
    <path d="M 34.54375 232.177362 
L 34.54375 54.528 
" style="fill: none; stroke: #000000; stroke-width: 0.8; stroke-linejoin: miter; stroke-linecap: square"/>
   </g>
   <g id="patch_7">
    <path d="M 288.18875 232.177362 
L 288.18875 54.528 
" style="fill: none; stroke: #000000; stroke-width: 0.8; stroke-linejoin: miter; stroke-linecap: square"/>
   </g>
   <g id="patch_8">
    <path d="M 34.54375 232.177362 
L 288.18875 232.177362 
" style="fill: none; stroke: #000000; stroke-width: 0.8; stroke-linejoin: miter; stroke-linecap: square"/>
   </g>
   <g id="patch_9">
    <path d="M 34.54375 54.528 
L 288.18875 54.528 
" style="fill: none; stroke: #000000; stroke-width: 0.8; stroke-linejoin: miter; stroke-linecap: square"/>
   </g>
   <g id="text_10">
    <!-- *** -->
    <g style="fill: #1f2937" transform="translate(153.325078 165.235866) scale(0.11 -0.11)">
     <defs>
      <path id="MicrosoftYaHei-Bold-2a" d="M 2884 3572 
L 1959 3441 
L 2619 2716 
L 2031 2313 
L 1559 3175 
L 1091 2313 
L 503 2716 
L 1166 3441 
L 241 3572 
L 469 4225 
L 1322 3866 
L 1184 4841 
L 1938 4841 
L 1800 3866 
L 2650 4225 
L 2884 3572 
z
" transform="scale(0.015625)"/>
     </defs>
     <use xlink:href="#MicrosoftYaHei-Bold-2a"/>
     <use xlink:href="#MicrosoftYaHei-Bold-2a" transform="translate(48.730469 0)"/>
     <use xlink:href="#MicrosoftYaHei-Bold-2a" transform="translate(97.460938 0)"/>
    </g>
   </g>
   <g id="text_11">
    <!-- *** -->
    <g style="fill: #1f2937" transform="translate(235.677351 51.793469) scale(0.11 -0.11)">
     <use xlink:href="#MicrosoftYaHei-Bold-2a"/>
     <use xlink:href="#MicrosoftYaHei-Bold-2a" transform="translate(48.730469 0)"/>
     <use xlink:href="#MicrosoftYaHei-Bold-2a" transform="translate(97.460938 0)"/>
    </g>
   </g>
   <g id="text_12">
    <!-- GeneA -->
    <g transform="translate(141.390938 48.528) scale(0.12 -0.12)">
     <defs>
      <path id="MicrosoftYaHei-Bold-47" d="M 4494 325 
Q 3784 -84 2750 -84 
Q 1594 -84 925 566 
Q 256 1216 256 2344 
Q 256 3488 992 4205 
Q 1728 4922 2931 4922 
Q 3706 4922 4284 4703 
L 4284 3725 
Q 3722 4053 2909 4053 
Q 2209 4053 1775 3597 
Q 1341 3141 1341 2394 
Q 1341 1634 1733 1209 
Q 2125 784 2803 784 
Q 3206 784 3463 909 
L 3463 1903 
L 2484 1903 
L 2484 2731 
L 4494 2731 
L 4494 325 
z
" transform="scale(0.015625)"/>
      <path id="MicrosoftYaHei-Bold-65" d="M 3528 1444 
L 1253 1444 
Q 1306 641 2222 641 
Q 2794 641 3231 922 
L 3231 181 
Q 2759 -84 1994 -84 
Q 1169 -84 711 381 
Q 253 847 253 1678 
Q 253 2506 740 3023 
Q 1228 3541 1966 3541 
Q 2700 3541 3114 3095 
Q 3528 2650 3528 1872 
L 3528 1444 
z
M 2588 2075 
Q 2588 2850 1959 2850 
Q 1700 2850 1500 2637 
Q 1300 2425 1250 2075 
L 2588 2075 
z
" transform="scale(0.015625)"/>
      <path id="MicrosoftYaHei-Bold-6e" d="M 3744 0 
L 2741 0 
L 2741 1928 
Q 2741 2766 2138 2766 
Q 1850 2766 1659 2542 
Q 1469 2319 1469 1972 
L 1469 0 
L 459 0 
L 459 3456 
L 1469 3456 
L 1469 2906 
L 1481 2906 
Q 1859 3541 2594 3541 
Q 3744 3541 3744 2116 
L 3744 0 
z
" transform="scale(0.015625)"/>
      <path id="MicrosoftYaHei-Bold-41" d="M 4759 0 
L 3634 0 
L 3272 1109 
L 1513 1109 
L 1156 0 
L 38 0 
L 1809 4841 
L 3022 4841 
L 4759 0 
z
M 3028 1906 
L 2478 3584 
Q 2425 3744 2403 4006 
L 2375 4006 
Q 2356 3794 2291 3597 
L 1738 1906 
L 3028 1906 
z
" transform="scale(0.015625)"/>
     </defs>
     <use xlink:href="#MicrosoftYaHei-Bold-47"/>
     <use xlink:href="#MicrosoftYaHei-Bold-65" transform="translate(76.513672 0)"/>
     <use xlink:href="#MicrosoftYaHei-Bold-6e" transform="translate(134.716797 0)"/>
     <use xlink:href="#MicrosoftYaHei-Bold-65" transform="translate(199.511719 0)"/>
     <use xlink:href="#MicrosoftYaHei-Bold-41" transform="translate(257.714844 0)"/>
    </g>
   </g>
  </g>
  <g id="axes_2">
   <g id="patch_10">
    <path d="M 335.63875 232.177362 
L 589.28375 232.177362 
L 589.28375 54.528 
L 335.63875 54.528 
z
" style="fill: #ffffff"/>
   </g>
   <g id="patch_11">
    <path d="M 347.168068 232.177362 
L 413.049886 232.177362 
L 413.049886 78.166093 
L 347.168068 78.166093 
z
" clip-path="url(#pa4d5e50bcf)" style="fill: #6366f1; stroke: #312e81; stroke-width: 0.8; stroke-linejoin: miter"/>
   </g>
   <g id="patch_12">
    <path d="M 429.520341 232.177362 
L 495.402159 232.177362 
L 495.402159 71.371378 
L 429.520341 71.371378 
z
" clip-path="url(#pa4d5e50bcf)" style="fill: #6366f1; stroke: #312e81; stroke-width: 0.8; stroke-linejoin: miter"/>
   </g>
   <g id="patch_13">
    <path d="M 511.872614 232.177362 
L 577.754432 232.177362 
L 577.754432 150.674446 
L 511.872614 150.674446 
z
" clip-path="url(#pa4d5e50bcf)" style="fill: #6366f1; stroke: #312e81; stroke-width: 0.8; stroke-linejoin: miter"/>
   </g>
   <g id="matplotlib.axis_3">
    <g id="xtick_4">
     <g id="line2d_17">
      <g>
       <use xlink:href="#m2630dd7aae" x="380.108977" y="232.177362" style="stroke: #000000; stroke-width: 0.8"/>
      </g>
     </g>
     <g id="text_13">
      <!-- Control -->
      <g transform="translate(346.762663 261.481898) rotate(-25) scale(0.1 -0.1)">
       <use xlink:href="#MicrosoftYaHei-43"/>
       <use xlink:href="#MicrosoftYaHei-6f" transform="translate(66.894531 0)"/>
       <use xlink:href="#MicrosoftYaHei-6e" transform="translate(130.46875 0)"/>
       <use xlink:href="#MicrosoftYaHei-74" transform="translate(192.089844 0)"/>
       <use xlink:href="#MicrosoftYaHei-72" transform="translate(229.345703 0)"/>
       <use xlink:href="#MicrosoftYaHei-6f" transform="translate(266.154297 0)"/>
       <use xlink:href="#MicrosoftYaHei-6c" transform="translate(329.728516 0)"/>
      </g>
     </g>
    </g>
    <g id="xtick_5">
     <g id="line2d_18">
      <g>
       <use xlink:href="#m2630dd7aae" x="462.46125" y="232.177362" style="stroke: #000000; stroke-width: 0.8"/>
      </g>
     </g>
     <g id="text_14">
      <!-- Treat-L -->
      <g transform="translate(432.172309 260.056221) rotate(-25) scale(0.1 -0.1)">
       <use xlink:href="#MicrosoftYaHei-54"/>
       <use xlink:href="#MicrosoftYaHei-72" transform="translate(47.949219 0)"/>
       <use xlink:href="#MicrosoftYaHei-65" transform="translate(84.757812 0)"/>
       <use xlink:href="#MicrosoftYaHei-61" transform="translate(141.496094 0)"/>
       <use xlink:href="#MicrosoftYaHei-74" transform="translate(196.769531 0)"/>
       <use xlink:href="#MicrosoftYaHei-2d" transform="translate(228.025391 0)"/>
       <use xlink:href="#MicrosoftYaHei-4c" transform="translate(271.287109 0)"/>
      </g>
     </g>
    </g>
    <g id="xtick_6">
     <g id="line2d_19">
      <g>
       <use xlink:href="#m2630dd7aae" x="544.813523" y="232.177362" style="stroke: #000000; stroke-width: 0.8"/>
      </g>
     </g>
     <g id="text_15">
      <!-- Treat-H -->
      <g transform="translate(512.165349 261.156349) rotate(-25) scale(0.1 -0.1)">
       <use xlink:href="#MicrosoftYaHei-54"/>
       <use xlink:href="#MicrosoftYaHei-72" transform="translate(47.949219 0)"/>
       <use xlink:href="#MicrosoftYaHei-65" transform="translate(84.757812 0)"/>
       <use xlink:href="#MicrosoftYaHei-61" transform="translate(141.496094 0)"/>
       <use xlink:href="#MicrosoftYaHei-74" transform="translate(196.769531 0)"/>
       <use xlink:href="#MicrosoftYaHei-2d" transform="translate(228.025391 0)"/>
       <use xlink:href="#MicrosoftYaHei-48" transform="translate(271.287109 0)"/>
      </g>
     </g>
    </g>
   </g>
   <g id="matplotlib.axis_4">
    <g id="ytick_6">
     <g id="line2d_20">
      <path d="M 335.63875 232.177362 
L 589.28375 232.177362 
" clip-path="url(#pa4d5e50bcf)" style="fill: none; stroke-dasharray: 0.8,1.32; stroke-dashoffset: 0; stroke: #b0b0b0; stroke-opacity: 0.5; stroke-width: 0.8"/>
     </g>
     <g id="line2d_21">
      <g>
       <use xlink:href="#m0a57ac1906" x="335.63875" y="232.177362" style="stroke: #000000; stroke-width: 0.8"/>
      </g>
     </g>
     <g id="text_16">
      <!-- 0.0 -->
      <g transform="translate(314.502813 236.174237) scale(0.1 -0.1)">
       <defs>
        <path id="MicrosoftYaHei-2e" d="M 372 322 
Q 372 491 487 606 
Q 603 722 775 722 
Q 950 722 1065 605 
Q 1181 488 1181 322 
Q 1181 159 1065 42 
Q 950 -75 772 -75 
Q 600 -75 486 42 
Q 372 159 372 322 
z
" transform="scale(0.015625)"/>
       </defs>
       <use xlink:href="#MicrosoftYaHei-30"/>
       <use xlink:href="#MicrosoftYaHei-2e" transform="translate(58.642578 0)"/>
       <use xlink:href="#MicrosoftYaHei-30" transform="translate(82.714844 0)"/>
      </g>
     </g>
    </g>
    <g id="ytick_7">
     <g id="line2d_22">
      <path d="M 335.63875 201.530814 
L 589.28375 201.530814 
" clip-path="url(#pa4d5e50bcf)" style="fill: none; stroke-dasharray: 0.8,1.32; stroke-dashoffset: 0; stroke: #b0b0b0; stroke-opacity: 0.5; stroke-width: 0.8"/>
     </g>
     <g id="line2d_23">
      <g>
       <use xlink:href="#m0a57ac1906" x="335.63875" y="201.530814" style="stroke: #000000; stroke-width: 0.8"/>
      </g>
     </g>
     <g id="text_17">
      <!-- 0.2 -->
      <g transform="translate(314.502813 205.527689) scale(0.1 -0.1)">
       <use xlink:href="#MicrosoftYaHei-30"/>
       <use xlink:href="#MicrosoftYaHei-2e" transform="translate(58.642578 0)"/>
       <use xlink:href="#MicrosoftYaHei-32" transform="translate(82.714844 0)"/>
      </g>
     </g>
    </g>
    <g id="ytick_8">
     <g id="line2d_24">
      <path d="M 335.63875 170.884265 
L 589.28375 170.884265 
" clip-path="url(#pa4d5e50bcf)" style="fill: none; stroke-dasharray: 0.8,1.32; stroke-dashoffset: 0; stroke: #b0b0b0; stroke-opacity: 0.5; stroke-width: 0.8"/>
     </g>
     <g id="line2d_25">
      <g>
       <use xlink:href="#m0a57ac1906" x="335.63875" y="170.884265" style="stroke: #000000; stroke-width: 0.8"/>
      </g>
     </g>
     <g id="text_18">
      <!-- 0.4 -->
      <g transform="translate(314.502813 174.88114) scale(0.1 -0.1)">
       <use xlink:href="#MicrosoftYaHei-30"/>
       <use xlink:href="#MicrosoftYaHei-2e" transform="translate(58.642578 0)"/>
       <use xlink:href="#MicrosoftYaHei-34" transform="translate(82.714844 0)"/>
      </g>
     </g>
    </g>
    <g id="ytick_9">
     <g id="line2d_26">
      <path d="M 335.63875 140.237717 
L 589.28375 140.237717 
" clip-path="url(#pa4d5e50bcf)" style="fill: none; stroke-dasharray: 0.8,1.32; stroke-dashoffset: 0; stroke: #b0b0b0; stroke-opacity: 0.5; stroke-width: 0.8"/>
     </g>
     <g id="line2d_27">
      <g>
       <use xlink:href="#m0a57ac1906" x="335.63875" y="140.237717" style="stroke: #000000; stroke-width: 0.8"/>
      </g>
     </g>
     <g id="text_19">
      <!-- 0.6 -->
      <g transform="translate(314.502813 144.234592) scale(0.1 -0.1)">
       <use xlink:href="#MicrosoftYaHei-30"/>
       <use xlink:href="#MicrosoftYaHei-2e" transform="translate(58.642578 0)"/>
       <use xlink:href="#MicrosoftYaHei-36" transform="translate(82.714844 0)"/>
      </g>
     </g>
    </g>
    <g id="ytick_10">
     <g id="line2d_28">
      <path d="M 335.63875 109.591168 
L 589.28375 109.591168 
" clip-path="url(#pa4d5e50bcf)" style="fill: none; stroke-dasharray: 0.8,1.32; stroke-dashoffset: 0; stroke: #b0b0b0; stroke-opacity: 0.5; stroke-width: 0.8"/>
     </g>
     <g id="line2d_29">
      <g>
       <use xlink:href="#m0a57ac1906" x="335.63875" y="109.591168" style="stroke: #000000; stroke-width: 0.8"/>
      </g>
     </g>
     <g id="text_20">
      <!-- 0.8 -->
      <g transform="translate(314.502813 113.588043) scale(0.1 -0.1)">
       <use xlink:href="#MicrosoftYaHei-30"/>
       <use xlink:href="#MicrosoftYaHei-2e" transform="translate(58.642578 0)"/>
       <use xlink:href="#MicrosoftYaHei-38" transform="translate(82.714844 0)"/>
      </g>
     </g>
    </g>
    <g id="ytick_11">
     <g id="line2d_30">
      <path d="M 335.63875 78.94462 
L 589.28375 78.94462 
" clip-path="url(#pa4d5e50bcf)" style="fill: none; stroke-dasharray: 0.8,1.32; stroke-dashoffset: 0; stroke: #b0b0b0; stroke-opacity: 0.5; stroke-width: 0.8"/>
     </g>
     <g id="line2d_31">
      <g>
       <use xlink:href="#m0a57ac1906" x="335.63875" y="78.94462" style="stroke: #000000; stroke-width: 0.8"/>
      </g>
     </g>
     <g id="text_21">
      <!-- 1.0 -->
      <g transform="translate(314.502813 82.941495) scale(0.1 -0.1)">
       <defs>
        <path id="MicrosoftYaHei-31" d="M 1781 0 
L 1781 4141 
Q 1638 3997 1295 3819 
Q 953 3641 663 3569 
L 663 4169 
Q 1047 4275 1484 4508 
Q 1922 4741 2156 4947 
L 2388 4947 
L 2388 0 
L 1781 0 
z
" transform="scale(0.015625)"/>
       </defs>
       <use xlink:href="#MicrosoftYaHei-31"/>
       <use xlink:href="#MicrosoftYaHei-2e" transform="translate(58.642578 0)"/>
       <use xlink:href="#MicrosoftYaHei-30" transform="translate(82.714844 0)"/>
      </g>
     </g>
    </g>
    <g id="text_22">
     <!-- 2^-ΔΔCt (mean ± SEM) -->
     <g transform="translate(308.016875 199.775337) rotate(-90) scale(0.1 -0.1)">
      <use xlink:href="#MicrosoftYaHei-32"/>
      <use xlink:href="#MicrosoftYaHei-5e" transform="translate(58.642578 0)"/>
      <use xlink:href="#MicrosoftYaHei-2d" transform="translate(132.8125 0)"/>
      <use xlink:href="#MicrosoftYaHei-394" transform="translate(176.074219 0)"/>
      <use xlink:href="#MicrosoftYaHei-394" transform="translate(246.435547 0)"/>
      <use xlink:href="#MicrosoftYaHei-43" transform="translate(316.796875 0)"/>
      <use xlink:href="#MicrosoftYaHei-74" transform="translate(383.691406 0)"/>
      <use xlink:href="#MicrosoftYaHei-20" transform="translate(420.947266 0)"/>
      <use xlink:href="#MicrosoftYaHei-28" transform="translate(450.537109 0)"/>
      <use xlink:href="#MicrosoftYaHei-6d" transform="translate(483.935547 0)"/>
      <use xlink:href="#MicrosoftYaHei-65" transform="translate(577.636719 0)"/>
      <use xlink:href="#MicrosoftYaHei-61" transform="translate(634.375 0)"/>
      <use xlink:href="#MicrosoftYaHei-6e" transform="translate(689.648438 0)"/>
      <use xlink:href="#MicrosoftYaHei-20" transform="translate(751.269531 0)"/>
      <use xlink:href="#MicrosoftYaHei-b1" transform="translate(780.859375 0)"/>
      <use xlink:href="#MicrosoftYaHei-20" transform="translate(855.029297 0)"/>
      <use xlink:href="#MicrosoftYaHei-53" transform="translate(884.619141 0)"/>
      <use xlink:href="#MicrosoftYaHei-45" transform="translate(942.333984 0)"/>
      <use xlink:href="#MicrosoftYaHei-4d" transform="translate(997.314453 0)"/>
      <use xlink:href="#MicrosoftYaHei-29" transform="translate(1095.019531 0)"/>
     </g>
    </g>
   </g>
   <g id="LineCollection_2">
    <path d="M 380.108977 85.058569 
L 380.108977 71.273617 
" clip-path="url(#pa4d5e50bcf)" style="fill: none; stroke: #475569; stroke-width: 1.2"/>
    <path d="M 462.46125 79.755262 
L 462.46125 62.987493 
" clip-path="url(#pa4d5e50bcf)" style="fill: none; stroke: #475569; stroke-width: 1.2"/>
    <path d="M 544.813523 153.700002 
L 544.813523 147.64889 
" clip-path="url(#pa4d5e50bcf)" style="fill: none; stroke: #475569; stroke-width: 1.2"/>
   </g>
   <g id="line2d_32">
    <g clip-path="url(#pa4d5e50bcf)">
     <use xlink:href="#m4db95470b3" x="380.108977" y="85.058569" style="fill: #1f77b4; stroke: #475569"/>
     <use xlink:href="#m4db95470b3" x="462.46125" y="79.755262" style="fill: #1f77b4; stroke: #475569"/>
     <use xlink:href="#m4db95470b3" x="544.813523" y="153.700002" style="fill: #1f77b4; stroke: #475569"/>
    </g>
   </g>
   <g id="line2d_33">
    <g clip-path="url(#pa4d5e50bcf)">
     <use xlink:href="#m4db95470b3" x="380.108977" y="71.273617" style="fill: #1f77b4; stroke: #475569"/>
     <use xlink:href="#m4db95470b3" x="462.46125" y="62.987493" style="fill: #1f77b4; stroke: #475569"/>
     <use xlink:href="#m4db95470b3" x="544.813523" y="147.64889" style="fill: #1f77b4; stroke: #475569"/>
    </g>
   </g>
   <g id="line2d_34">
    <path d="M 335.63875 78.94462 
L 589.28375 78.94462 
" clip-path="url(#pa4d5e50bcf)" style="fill: none; stroke-dasharray: 2.96,1.28; stroke-dashoffset: 0; stroke: #94a3b8; stroke-width: 0.8"/>
   </g>
   <g id="patch_14">
    <path d="M 335.63875 232.177362 
L 335.63875 54.528 
" style="fill: none; stroke: #000000; stroke-width: 0.8; stroke-linejoin: miter; stroke-linecap: square"/>
   </g>
   <g id="patch_15">
    <path d="M 589.28375 232.177362 
L 589.28375 54.528 
" style="fill: none; stroke: #000000; stroke-width: 0.8; stroke-linejoin: miter; stroke-linecap: square"/>
   </g>
   <g id="patch_16">
    <path d="M 335.63875 232.177362 
L 589.28375 232.177362 
" style="fill: none; stroke: #000000; stroke-width: 0.8; stroke-linejoin: miter; stroke-linecap: square"/>
   </g>
   <g id="patch_17">
    <path d="M 335.63875 54.528 
L 589.28375 54.528 
" style="fill: none; stroke: #000000; stroke-width: 0.8; stroke-linejoin: miter; stroke-linecap: square"/>
   </g>
   <g id="text_23">
    <!-- ns -->
    <g style="fill: #1f2937" transform="translate(456.182656 51.793469) scale(0.11 -0.11)">
     <defs>
      <path id="MicrosoftYaHei-Bold-73" d="M 369 928 
Q 888 613 1384 613 
Q 2009 613 2009 947 
Q 2009 1184 1494 1344 
Q 850 1544 609 1789 
Q 369 2034 369 2453 
Q 369 2963 781 3252 
Q 1194 3541 1863 3541 
Q 2338 3541 2778 3400 
L 2778 2606 
Q 2375 2844 1891 2844 
Q 1650 2844 1503 2758 
Q 1356 2672 1356 2531 
Q 1356 2294 1794 2147 
Q 2263 1991 2498 1862 
Q 2734 1734 2857 1525 
Q 2981 1316 2981 1041 
Q 2981 506 2553 211 
Q 2125 -84 1409 -84 
Q 847 -84 369 94 
L 369 928 
z
" transform="scale(0.015625)"/>
     </defs>
     <use xlink:href="#MicrosoftYaHei-Bold-6e"/>
     <use xlink:href="#MicrosoftYaHei-Bold-73" transform="translate(64.794922 0)"/>
    </g>
   </g>
   <g id="text_24">
    <!-- *** -->
    <g style="fill: #1f2937" transform="translate(536.772351 137.252721) scale(0.11 -0.11)">
     <use xlink:href="#MicrosoftYaHei-Bold-2a"/>
     <use xlink:href="#MicrosoftYaHei-Bold-2a" transform="translate(48.730469 0)"/>
     <use xlink:href="#MicrosoftYaHei-Bold-2a" transform="translate(97.460938 0)"/>
    </g>
   </g>
   <g id="text_25">
    <!-- GeneB -->
    <g transform="translate(442.896562 48.528) scale(0.12 -0.12)">
     <defs>
      <path id="MicrosoftYaHei-Bold-42" d="M 559 0 
L 559 4841 
L 2278 4841 
Q 3069 4841 3497 4541 
Q 3925 4241 3925 3709 
Q 3925 3316 3659 3019 
Q 3394 2722 2991 2609 
L 2991 2597 
Q 3497 2534 3808 2221 
Q 4119 1909 4119 1438 
Q 4119 778 3650 389 
Q 3181 0 2369 0 
L 559 0 
z
M 1591 4072 
L 1591 2875 
L 2081 2875 
Q 2434 2875 2637 3044 
Q 2841 3213 2841 3516 
Q 2841 4072 2028 4072 
L 1591 4072 
z
M 1591 2097 
L 1591 769 
L 2203 769 
Q 2594 769 2814 950 
Q 3034 1131 3034 1453 
Q 3034 1759 2815 1928 
Q 2597 2097 2194 2097 
L 1591 2097 
z
" transform="scale(0.015625)"/>
     </defs>
     <use xlink:href="#MicrosoftYaHei-Bold-47"/>
     <use xlink:href="#MicrosoftYaHei-Bold-65" transform="translate(76.513672 0)"/>
     <use xlink:href="#MicrosoftYaHei-Bold-6e" transform="translate(134.716797 0)"/>
     <use xlink:href="#MicrosoftYaHei-Bold-65" transform="translate(199.511719 0)"/>
     <use xlink:href="#MicrosoftYaHei-Bold-42" transform="translate(257.714844 0)"/>
    </g>
   </g>
  </g>
  <g id="text_26">
   <!-- Relative expression (2^-ΔΔCt) -->
   <g transform="translate(191.370156 18.39125) scale(0.14 -0.14)">
    <defs>
     <path id="MicrosoftYaHei-Bold-52" d="M 4553 0 
L 3366 0 
L 2606 1259 
Q 2372 1650 2222 1762 
Q 2072 1875 1903 1875 
L 1591 1875 
L 1591 0 
L 559 0 
L 559 4841 
L 2256 4841 
Q 3984 4841 3984 3528 
Q 3984 3034 3695 2681 
Q 3406 2328 2900 2184 
L 2900 2172 
Q 3234 2059 3641 1434 
L 4553 0 
z
M 1591 4056 
L 1591 2663 
L 2097 2663 
Q 2459 2663 2679 2873 
Q 2900 3084 2900 3400 
Q 2900 4056 2116 4056 
L 1591 4056 
z
" transform="scale(0.015625)"/>
     <path id="MicrosoftYaHei-Bold-6c" d="M 444 0 
L 444 5116 
L 1450 5116 
L 1450 0 
L 444 0 
z
" transform="scale(0.015625)"/>
     <path id="MicrosoftYaHei-Bold-61" d="M 544 3247 
Q 778 3378 1170 3459 
Q 1563 3541 1841 3541 
Q 3291 3541 3291 2088 
L 3291 0 
L 2331 0 
L 2331 503 
L 2319 503 
Q 1966 -84 1284 -84 
Q 794 -84 498 195 
Q 203 475 203 956 
Q 203 1950 1388 2113 
L 2338 2241 
Q 2338 2844 1709 2844 
Q 1091 2844 544 2469 
L 544 3247 
z
M 1684 1566 
Q 1138 1494 1138 1072 
Q 1138 878 1270 759 
Q 1403 641 1628 641 
Q 1938 641 2138 859 
Q 2338 1078 2338 1403 
L 2338 1650 
L 1684 1566 
z
" transform="scale(0.015625)"/>
     <path id="MicrosoftYaHei-Bold-74" d="M 2494 41 
Q 2266 -84 1803 -84 
Q 703 -84 703 1072 
L 703 2703 
L 134 2703 
L 134 3456 
L 703 3456 
L 703 4216 
L 1706 4503 
L 1706 3456 
L 2494 3456 
L 2494 2703 
L 1706 2703 
L 1706 1247 
Q 1706 694 2144 694 
Q 2313 694 2494 794 
L 2494 41 
z
" transform="scale(0.015625)"/>
     <path id="MicrosoftYaHei-Bold-69" d="M 369 4572 
Q 369 4803 533 4948 
Q 697 5094 953 5094 
Q 1216 5094 1378 4945 
Q 1541 4797 1541 4572 
Q 1541 4344 1375 4192 
Q 1209 4041 953 4041 
Q 700 4041 534 4194 
Q 369 4347 369 4572 
z
M 444 0 
L 444 3456 
L 1450 3456 
L 1450 0 
L 444 0 
z
" transform="scale(0.015625)"/>
     <path id="MicrosoftYaHei-Bold-76" d="M 3688 3456 
L 2391 0 
L 1250 0 
L 16 3456 
L 1097 3456 
L 1731 1281 
Q 1834 925 1847 684 
L 1863 684 
Q 1888 931 1984 1263 
L 2631 3456 
L 3688 3456 
z
" transform="scale(0.015625)"/>
     <path id="MicrosoftYaHei-Bold-20" transform="scale(0.015625)"/>
     <path id="MicrosoftYaHei-Bold-78" d="M 3706 3456 
L 2563 1772 
L 3697 0 
L 2531 0 
L 2016 953 
Q 1909 1150 1869 1263 
L 1856 1263 
Q 1800 1113 1716 963 
L 1191 0 
L 31 0 
L 1200 1719 
L 100 3456 
L 1269 3456 
L 1781 2463 
Q 1856 2319 1922 2144 
L 1934 2144 
Q 1966 2250 2078 2466 
L 2606 3456 
L 3706 3456 
z
" transform="scale(0.015625)"/>
     <path id="MicrosoftYaHei-Bold-70" d="M 1469 416 
L 1469 -1591 
L 459 -1591 
L 459 3456 
L 1469 3456 
L 1469 2928 
L 1481 2928 
Q 1878 3541 2603 3541 
Q 3263 3541 3634 3080 
Q 4006 2619 4006 1825 
Q 4006 959 3575 437 
Q 3144 -84 2444 -84 
Q 1809 -84 1481 416 
L 1469 416 
z
M 1453 1528 
Q 1453 1159 1653 925 
Q 1853 691 2172 691 
Q 2550 691 2761 984 
Q 2972 1278 2972 1816 
Q 2972 2766 2231 2766 
Q 1888 2766 1670 2503 
Q 1453 2241 1453 1828 
L 1453 1528 
z
" transform="scale(0.015625)"/>
     <path id="MicrosoftYaHei-Bold-72" d="M 2663 2541 
Q 2478 2647 2216 2647 
Q 1872 2647 1670 2384 
Q 1469 2122 1469 1663 
L 1469 0 
L 459 0 
L 459 3456 
L 1469 3456 
L 1469 2806 
L 1481 2806 
Q 1731 3516 2391 3516 
Q 2569 3516 2663 3475 
L 2663 2541 
z
" transform="scale(0.015625)"/>
     <path id="MicrosoftYaHei-Bold-6f" d="M 253 1713 
Q 253 2566 764 3053 
Q 1275 3541 2138 3541 
Q 2972 3541 3462 3061 
Q 3953 2581 3953 1772 
Q 3953 922 3450 419 
Q 2947 -84 2088 -84 
Q 1244 -84 748 398 
Q 253 881 253 1713 
z
M 1275 1725 
Q 1275 691 2119 691 
Q 2928 691 2928 1753 
Q 2928 2766 2113 2766 
Q 1716 2766 1495 2494 
Q 1275 2222 1275 1725 
z
" transform="scale(0.015625)"/>
     <path id="MicrosoftYaHei-Bold-28" d="M 1606 -1100 
Q 525 97 525 1853 
Q 525 3550 1606 4841 
L 2431 4841 
Q 1406 3497 1406 1853 
Q 1406 216 2438 -1100 
L 1606 -1100 
z
" transform="scale(0.015625)"/>
     <path id="MicrosoftYaHei-Bold-32" d="M 1500 841 
L 3553 841 
L 3553 0 
L 334 0 
L 334 359 
Q 334 738 473 1050 
Q 613 1363 856 1633 
Q 1100 1903 1613 2266 
Q 2081 2616 2268 2886 
Q 2456 3156 2456 3459 
Q 2456 4113 1744 4113 
Q 1119 4113 550 3613 
L 550 4513 
Q 1184 4922 1975 4922 
Q 2700 4922 3122 4551 
Q 3544 4181 3544 3531 
Q 3544 3169 3422 2876 
Q 3300 2584 3069 2328 
Q 2838 2072 2328 1713 
Q 1838 1363 1669 1172 
Q 1500 981 1500 841 
z
" transform="scale(0.015625)"/>
     <path id="MicrosoftYaHei-Bold-5e" d="M 4188 2066 
L 3400 2066 
L 2419 4056 
L 2400 4056 
L 1475 2066 
L 694 2066 
L 2144 4922 
L 2653 4922 
L 4188 2066 
z
" transform="scale(0.015625)"/>
     <path id="MicrosoftYaHei-Bold-2d" d="M 2328 1497 
L 481 1497 
L 481 2209 
L 2328 2209 
L 2328 1497 
z
" transform="scale(0.015625)"/>
     <path id="MicrosoftYaHei-Bold-394" d="M 128 0 
L 128 403 
L 1781 4841 
L 2991 4841 
L 4613 403 
L 4613 0 
L 128 0 
z
M 2484 3500 
Q 2388 3788 2369 3981 
L 2341 3981 
Q 2322 3775 2047 2956 
L 1334 844 
L 3381 844 
L 2484 3500 
z
" transform="scale(0.015625)"/>
     <path id="MicrosoftYaHei-Bold-43" d="M 4013 175 
Q 3484 -84 2634 -84 
Q 1541 -84 898 570 
Q 256 1225 256 2316 
Q 256 3463 973 4192 
Q 1691 4922 2825 4922 
Q 3534 4922 4013 4738 
L 4013 3741 
Q 3522 4028 2900 4028 
Q 2191 4028 1766 3575 
Q 1341 3122 1341 2391 
Q 1341 1678 1744 1243 
Q 2147 809 2834 809 
Q 3481 809 4013 1122 
L 4013 175 
z
" transform="scale(0.015625)"/>
     <path id="MicrosoftYaHei-Bold-29" d="M 59 -1100 
Q 1097 216 1097 1853 
Q 1097 3484 59 4841 
L 888 4841 
Q 1978 3544 1978 1853 
Q 1978 113 881 -1100 
L 59 -1100 
z
" transform="scale(0.015625)"/>
    </defs>
    <use xlink:href="#MicrosoftYaHei-Bold-52"/>
    <use xlink:href="#MicrosoftYaHei-Bold-65" transform="translate(67.074219 0)"/>
    <use xlink:href="#MicrosoftYaHei-Bold-6c" transform="translate(125.277344 0)"/>
    <use xlink:href="#MicrosoftYaHei-Bold-61" transform="translate(154.867188 0)"/>
    <use xlink:href="#MicrosoftYaHei-Bold-74" transform="translate(212.630859 0)"/>
    <use xlink:href="#MicrosoftYaHei-Bold-69" transform="translate(254.037109 0)"/>
    <use xlink:href="#MicrosoftYaHei-Bold-76" transform="translate(283.626953 0)"/>
    <use xlink:href="#MicrosoftYaHei-Bold-65" transform="translate(340.216797 0)"/>
    <use xlink:href="#MicrosoftYaHei-Bold-20" transform="translate(398.419922 0)"/>
    <use xlink:href="#MicrosoftYaHei-Bold-65" transform="translate(428.205078 0)"/>
    <use xlink:href="#MicrosoftYaHei-Bold-78" transform="translate(486.408203 0)"/>
    <use xlink:href="#MicrosoftYaHei-Bold-70" transform="translate(544.904297 0)"/>
    <use xlink:href="#MicrosoftYaHei-Bold-72" transform="translate(611.505859 0)"/>
    <use xlink:href="#MicrosoftYaHei-Bold-65" transform="translate(653.388672 0)"/>
    <use xlink:href="#MicrosoftYaHei-Bold-73" transform="translate(711.591797 0)"/>
    <use xlink:href="#MicrosoftYaHei-Bold-73" transform="translate(760.957031 0)"/>
    <use xlink:href="#MicrosoftYaHei-Bold-69" transform="translate(810.322266 0)"/>
    <use xlink:href="#MicrosoftYaHei-Bold-6f" transform="translate(839.912109 0)"/>
    <use xlink:href="#MicrosoftYaHei-Bold-6e" transform="translate(905.634766 0)"/>
    <use xlink:href="#MicrosoftYaHei-Bold-20" transform="translate(970.429688 0)"/>
    <use xlink:href="#MicrosoftYaHei-Bold-28" transform="translate(1000.214844 0)"/>
    <use xlink:href="#MicrosoftYaHei-Bold-32" transform="translate(1039.179688 0)"/>
    <use xlink:href="#MicrosoftYaHei-Bold-5e" transform="translate(1100.849609 0)"/>
    <use xlink:href="#MicrosoftYaHei-Bold-2d" transform="translate(1176.972656 0)"/>
    <use xlink:href="#MicrosoftYaHei-Bold-394" transform="translate(1220.625 0)"/>
    <use xlink:href="#MicrosoftYaHei-Bold-394" transform="translate(1295.820312 0)"/>
    <use xlink:href="#MicrosoftYaHei-Bold-43" transform="translate(1371.015625 0)"/>
    <use xlink:href="#MicrosoftYaHei-Bold-74" transform="translate(1438.349609 0)"/>
    <use xlink:href="#MicrosoftYaHei-Bold-29" transform="translate(1479.755859 0)"/>
   </g>
  </g>
 </g>
 <defs>
  <clipPath id="pa1f568c2b1">
   <rect x="34.54375" y="54.528" width="253.645" height="177.649362"/>
  </clipPath>
  <clipPath id="pa4d5e50bcf">
   <rect x="335.63875" y="54.528" width="253.645" height="177.649362"/>
  </clipPath>
 </defs>
</svg>
